<svg width="64" height="64" fill="none" xmlns="http://www.w3.org/2000/svg"><path d="M60.488 14.68L32.394 1.09a.905.905 0 00-.788 0L3.512 14.68a.908.908 0 00-.512.818v33.004a.91.91 0 00.512.818l28.094 13.59a.907.907 0 00.788 0l28.094-13.59a.908.908 0 00.512-.818V15.498a.91.91 0 00-.512-.818zM32 2.917l26.009 12.581-7.54 3.647a.894.894 0 00-.153-.097L24.484 6.553 32 2.917zm-9.563 4.662l25.97 12.563-5.318 2.573-25.96-12.557 5.308-2.579zm26.579 14.286v9.512l-4.969 2.403v-9.51l4.969-2.404zm10.171 26.067l-26.28 12.713V29.658l6.268-3.033a.909.909 0 00-.788-1.635L32 28.08l-2.513-1.216a.91.91 0 00-.788 1.636l2.395 1.158v30.987L4.813 47.932V16.945l20.012 9.68a.906.906 0 001.21-.423.91.91 0 00-.422-1.212L5.991 15.498l9.004-4.355 27.227 13.17.012.016v10.898a.909.909 0 001.3.818l6.782-3.28a.908.908 0 00.512-.818V20.989l8.36-4.044v30.987z" fill="#000"/><path d="M11.616 44.81L7.35 42.75a.937.937 0 10-.815 1.689l4.264 2.058a.937.937 0 10.815-1.688zm3.924-2.555l-8.183-3.95a.937.937 0 10-.815 1.688l8.183 3.95a.934.934 0 001.252-.436.937.937 0 00-.437-1.252z" fill="#000"/></svg>