<svg width="42" height="42" fill="none" xmlns="http://www.w3.org/2000/svg"><path d="M21 2c5.162 0 5.806.019 7.832.114 2.023.095 3.4.412 4.613.884a9.264 9.264 0 013.367 2.19 9.326 9.326 0 012.19 3.367c.47 1.21.789 2.59.884 4.613.09 2.026.114 2.67.114 7.832s-.019 5.806-.114 7.832c-.095 2.023-.414 3.4-.884 4.613a9.277 9.277 0 01-2.19 3.367 9.34 9.34 0 01-3.367 2.19c-1.21.47-2.59.789-4.613.884-2.026.09-2.67.114-7.832.114s-5.806-.019-7.832-.114c-2.023-.095-3.4-.414-4.613-.884a9.29 9.29 0 01-3.367-2.19 9.317 9.317 0 01-2.19-3.367c-.472-1.21-.789-2.59-.884-4.613C2.024 26.806 2 26.162 2 21s.019-5.806.114-7.832c.095-2.025.412-3.4.884-4.613a9.272 9.272 0 012.19-3.367 9.304 9.304 0 013.367-2.19c1.212-.472 2.588-.789 4.613-.884C15.194 2.024 15.838 2 21 2zm0 9.5a9.5 9.5 0 100 19 9.5 9.5 0 000-19zm12.35-.475a2.375 2.375 0 10-4.75 0 2.375 2.375 0 004.75 0zM21 15.3a5.7 5.7 0 110 11.4 5.7 5.7 0 010-11.4z" fill="#fff"/></svg>