<svg width="64" height="64" fill="none" xmlns="http://www.w3.org/2000/svg"><g clip-path="url(#clip0)" fill="#000"><path d="M26.35 44.95h-5.1a1.25 1.25 0 010-2.5h5.1a1.25 1.25 0 010 2.5zm16.4 0h-5.1a1.25 1.25 0 010-2.5h5.1a1.25 1.25 0 010 2.5zm-10.773 0a1.26 1.26 0 01-1.176-.83 1.26 1.26 0 01.368-1.373c.41-.348 1.01-.39 1.468-.108.437.27.666.801.566 1.305a1.261 1.261 0 01-1.226 1.006zm7.278 4.925h-14.51a1.25 1.25 0 010-2.5h14.51a1.25 1.25 0 010 2.5zm-1.94-20.322a8.04 8.04 0 002.741-6.05c0-4.443-3.614-8.057-8.056-8.057-4.442 0-8.056 3.614-8.056 8.057a8.04 8.04 0 002.741 6.05c-2.838 1.084-4.859 3.835-4.859 7.049v2.143c0 .69.56 1.25 1.25 1.25h17.848c.69 0 1.25-.56 1.25-1.25v-2.143c0-3.214-2.02-5.965-4.859-7.05zM32 17.946a5.563 5.563 0 015.556 5.557A5.563 5.563 0 0132 29.059a5.563 5.563 0 01-5.556-5.556A5.563 5.563 0 0132 17.946zm7.674 19.549H24.326v-.893a5.048 5.048 0 015.042-5.043h5.264a5.048 5.048 0 015.042 5.043v.893z"/><path d="M15.088 62.664a4.62 4.62 0 01-2.722-.892 4.61 4.61 0 01-1.898-4.161l1.417-16.33L1.142 28.902a4.61 4.61 0 01-.91-4.482 4.61 4.61 0 013.37-3.09l15.966-3.7 8.45-14.044A4.61 4.61 0 0132 1.336a4.61 4.61 0 013.981 2.25l8.45 14.045 15.967 3.698a4.61 4.61 0 013.37 3.091 4.61 4.61 0 01-.91 4.482L52.115 41.281l1.417 16.33a4.611 4.611 0 01-1.898 4.161 4.61 4.61 0 01-4.544.52L32 55.896 16.91 62.29c-.59.25-1.209.373-1.822.373zM32 3.836a2.13 2.13 0 00-1.84 1.04l-8.723 14.497a1.25 1.25 0 01-.789.574L4.166 23.765a2.13 2.13 0 00-1.557 1.428 2.13 2.13 0 00.42 2.07l11.091 12.78c.222.256.33.59.301.927L12.96 57.827a2.13 2.13 0 00.877 1.923 2.13 2.13 0 002.098.24l15.578-6.601a1.25 1.25 0 01.975 0l15.578 6.6a2.13 2.13 0 002.1-.24 2.13 2.13 0 00.876-1.922l-1.463-16.858a1.25 1.25 0 01.302-.927l11.09-12.778a2.13 2.13 0 00.42-2.071 2.13 2.13 0 00-1.556-1.428L43.35 19.947a1.25 1.25 0 01-.788-.573L33.839 4.876A2.129 2.129 0 0032 3.836z"/></g><defs><clipPath id="clip0"><path fill="#fff" d="M0 0h64v64H0z"/></clipPath></defs></svg>