<svg width="64" height="64" fill="none" xmlns="http://www.w3.org/2000/svg"><path d="M49.905 51.394a1.152 1.152 0 00-1.604.291c-.35.507-.749 1-1.183 1.465-.291.313-.691.689-1.127 1.06a1.153 1.153 0 001.494 1.755c.508-.433.964-.863 1.318-1.243.51-.546.979-1.126 1.393-1.724a1.152 1.152 0 00-.291-1.604zm-5.021 5.167a1.152 1.152 0 00-1.532-.554l-.036.017a1.152 1.152 0 10.93 2.108l.084-.038c.576-.27.825-.956.554-1.533z" fill="#000"/><path d="M58.557 10H6.443A3.447 3.447 0 003 13.443v32.294a3.446 3.446 0 003.443 3.443h24.266c1.029 4.352 3.355 7.434 5.388 9.41 2.968 2.882 6.37 4.418 7.684 4.418 1.315 0 4.717-1.536 7.684-4.419 2.033-1.974 4.36-5.057 5.388-9.41h1.704A3.446 3.446 0 0062 45.738V13.443A3.447 3.447 0 0058.557 10zm-3.471 34.457c0 6.072-2.803 10.099-5.154 12.408-2.789 2.74-5.65 3.805-6.15 3.838-.502-.033-3.363-1.098-6.152-3.838-2.35-2.31-5.153-6.337-5.153-12.408v-5.675a51.578 51.578 0 0011.305-4.781 53.368 53.368 0 0011.304 4.78v5.676zm4.61 1.28a1.14 1.14 0 01-1.139 1.138h-1.303a21.33 21.33 0 00.137-2.418V37.91c0-.52-.349-.976-.85-1.112a50.835 50.835 0 01-12.178-5.121c-.36-.21-.804-.21-1.164 0a49.436 49.436 0 01-12.177 5.12c-.502.137-.85.593-.85 1.113v6.548c0 .84.048 1.646.136 2.418H6.444a1.14 1.14 0 01-1.138-1.138V26.132h54.39v19.605zm0-21.909H5.304v-4.61h54.39v4.61zm0-6.914H5.304v-3.471c0-.628.51-1.138 1.138-1.138h52.114c.628 0 1.138.51 1.138 1.138v3.471z" fill="#000"/><path d="M16.828 34.2c-.695 0-1.381.14-2.016.408a5.16 5.16 0 00-2.017-.409 5.191 5.191 0 00-5.186 5.186 5.192 5.192 0 005.186 5.185c.715 0 1.397-.145 2.017-.408a5.191 5.191 0 002.016.408 5.192 5.192 0 005.185-5.185 5.191 5.191 0 00-5.185-5.186zm-4.033 8.066a2.884 2.884 0 01-2.88-2.881 2.884 2.884 0 012.88-2.881 2.884 2.884 0 012.88 2.88 2.884 2.884 0 01-2.88 2.882zm4.318-.015a5.154 5.154 0 00.867-2.866c0-1.06-.32-2.045-.867-2.867a2.885 2.885 0 012.596 2.867 2.885 2.885 0 01-2.596 2.866zm-2.424-13.237H8.762a1.152 1.152 0 100 2.304h5.927a1.153 1.153 0 000-2.304zm3.406 0h-.054a1.152 1.152 0 100 2.304h.054a1.153 1.153 0 000-2.304zm32.012 12.793c-.45-.45-1.18-.45-1.63 0l-6.162 6.162-3.23-3.23a1.153 1.153 0 00-1.63 1.63l4.045 4.045a1.15 1.15 0 001.63 0l6.976-6.977c.45-.45.45-1.18 0-1.63z" fill="#000"/></svg>