<svg width="72" height="22" fill="none" xmlns="http://www.w3.org/2000/svg"><path d="M28.83.366L25.17 21.68h5.852L34.684.366H28.83zM20.263.39l-5.732 14.536-.61-2.195c-1.131-2.645-4.34-6.442-8.108-8.836l5.241 17.775 6.193-.01L26.463.384l-6.2.005z" fill="#fff"/><path d="M11.698 1.915C11.358.617 10.372.23 9.148.184H.076L0 .608c7.06 1.7 11.733 5.797 13.672 10.723l-1.974-9.416zm34.847 2.537c1.915-.03 3.303.386 4.38.816l.529.247.791-4.62C51.087.463 49.27 0 47.004 0c-5.783 0-9.86 2.891-9.89 7.034-.038 3.061 2.903 4.77 5.124 5.791 2.28 1.046 3.045 1.71 3.035 2.645-.018 1.426-1.818 2.08-3.5 2.08-2.343 0-3.588-.32-5.51-1.115l-.754-.341-.824 4.77c1.37.597 3.897 1.11 6.52 1.136 6.153 0 10.15-2.857 10.193-7.284.025-2.421-1.536-4.27-4.918-5.786-2.047-.99-3.3-1.646-3.287-2.644 0-.886 1.062-1.834 3.353-1.834zM67.265.39h-4.522c-1.404 0-2.449.38-3.066 1.769l-8.69 19.533h6.146s1.002-2.626 1.23-3.202c.673 0 6.644.01 7.494.01.175.743.714 3.192.714 3.192H72L67.265.39zm-7.218 13.738c.482-1.224 2.332-5.957 2.332-5.957-.032.058.477-1.233.78-2.035l.394 1.838 1.356 6.154h-4.862z" fill="#fff"/></svg>