<svg width="64" height="64" fill="none" xmlns="http://www.w3.org/2000/svg"><g clip-path="url(#clip0)" fill="#000"><path d="M59.75 13.31h-2.502l.002-4.475a5.453 5.453 0 00-5.444-5.45l-18.992-.01h-.003c-1.081 0-2.098.42-2.862 1.186L1.595 32.914A5.41 5.41 0 000 36.766a5.41 5.41 0 001.595 3.851l18.4 18.4a5.43 5.43 0 003.852 1.593 5.43 5.43 0 003.852-1.592l17.852-17.852a1.25 1.25 0 10-1.768-1.768L25.93 57.25a2.95 2.95 0 01-4.167 0l-18.4-18.4a2.928 2.928 0 01-.864-2.084c0-.788.307-1.528.863-2.084L31.716 6.329a1.538 1.538 0 011.095-.454h.001l18.992.01a2.95 2.95 0 012.946 2.95l-.006 10.474h-5.63c-.485 0-.924-.198-1.241-.518a4.584 4.584 0 001.439-.974 4.613 4.613 0 000-6.516 4.613 4.613 0 00-6.517 0 4.613 4.613 0 000 6.516 4.582 4.582 0 002.349 1.257 4.257 4.257 0 003.97 2.735h5.629l-.004 5.992c0 .414-.16.802-.453 1.094l-3.432 3.432a1.25 1.25 0 001.768 1.768l3.432-3.432a4.023 4.023 0 001.185-2.86l.004-5.994h2.507A4.255 4.255 0 0064 17.56a4.255 4.255 0 00-4.25-4.25zm-15.187-.241a2.1 2.1 0 011.491-.616 2.102 2.102 0 011.817 1.042 4.267 4.267 0 00-2.845 2.903 2.093 2.093 0 01-.463-.348 2.11 2.11 0 010-2.981zm15.187 6.24h-2.506l.002-3.5h2.504c.965 0 1.75.785 1.75 1.75s-.785 1.75-1.75 1.75z"/><path d="M20.177 34.913a1.25 1.25 0 001.539.87l12.832-3.572a1.25 1.25 0 00-.67-2.409l-12.832 3.572a1.25 1.25 0 00-.87 1.54zm5.648 1.65a3.661 3.661 0 00-1.08 2.606c0 .984.384 1.91 1.08 2.606a3.675 3.675 0 002.606 1.078c.944 0 1.888-.36 2.607-1.078a3.69 3.69 0 000-5.212 3.69 3.69 0 00-5.213 0zm3.445 3.444a1.187 1.187 0 01-1.677-1.677 1.184 1.184 0 011.677 0 1.187 1.187 0 010 1.677zm2.387-10.887a3.69 3.69 0 000-5.212 3.662 3.662 0 00-2.607-1.08 3.66 3.66 0 00-2.605 1.08 3.69 3.69 0 000 5.212 3.675 3.675 0 002.605 1.078c.944 0 1.888-.36 2.607-1.078zm-3.445-3.445c.224-.224.522-.347.838-.347a1.187 1.187 0 11-.838 2.024 1.188 1.188 0 010-1.677z"/><path d="M12.433 32.33a1.25 1.25 0 00-1.768 0l-3.552 3.552a1.25 1.25 0 000 1.767l15.85 15.852a1.247 1.247 0 001.768 0l23.7-23.7a1.25 1.25 0 000-1.768l-15.85-15.85a1.25 1.25 0 00-1.769 0L17.736 25.258a1.25 1.25 0 001.767 1.768l12.193-12.193L45.78 28.917 23.848 50.849 9.765 36.766l2.668-2.668a1.25 1.25 0 000-1.768zm35.77 3.167c-.33 0-.652.133-.884.366a1.26 1.26 0 00-.366.884 1.256 1.256 0 001.25 1.25c.328 0 .65-.134.883-.367a1.26 1.26 0 00.367-.883 1.26 1.26 0 00-.367-.884 1.26 1.26 0 00-.883-.366z"/><path d="M15.967 30.561a1.252 1.252 0 000-1.767 1.257 1.257 0 00-.883-.366c-.33 0-.651.133-.884.366a1.258 1.258 0 00-.366.884c0 .33.133.651.366.883a1.25 1.25 0 001.767 0z"/></g><defs><clipPath id="clip0"><path fill="#fff" d="M0 0h64v64H0z"/></clipPath></defs></svg>