<svg width="64" height="64" fill="none" xmlns="http://www.w3.org/2000/svg"><path d="M39.597 25.413l.09-.044a1.009 1.009 0 01-.468 1.346l-.044-.09.044.09-6.213 3.006v30.764L59.087 47.87V17.105l-8.159 3.946v10.896c0 .387-.22.74-.569.908l-6.78 3.28a1.004 1.004 0 01-.973-.054l.053-.084-.053.084a1.009 1.009 0 01-.472-.854V24.382L14.995 11.254l-8.774 4.244L25.657 24.9l-.044.09.044-.09c.5.242.71.845.469 1.346 0 0 0 0 0 0l-.09-.043 13.561-.79zm0 0l.09-.044a1.005 1.005 0 00-1.343-.47L32 27.97l-2.47-1.195a1.005 1.005 0 00-1.344.47 1.01 1.01 0 00.47 1.345l.043-.09m10.898-3.086L28.7 28.499m0 0l-.044.09 2.339 1.132v30.764L4.913 47.87V17.104l19.869 9.612s0 0 0 0l3.917 1.783zM60.53 14.59h0L32.438 1h0a1.005 1.005 0 00-.876 0h0L3.47 14.59s0 0 0 0a1.008 1.008 0 00-.569.908v33.004c0 .387.22.74.569.908L31.562 63l.044-.09-.044.09a1.005 1.005 0 00.876 0h0L60.53 49.41c.348-.168.569-.521.569-.908V15.498c0-.387-.221-.74-.569-.908zm-10.17 4.368L24.713 6.553 32 3.028l25.78 12.47-7.3 3.531a.906.906 0 00-.12-.07zm-7.27 3.647L17.358 10.158l5.079-2.467 25.741 12.451-5.09 2.463zm5.827-.58v9.289l-4.769 2.307v-9.29l4.769-2.306z" fill="#000" stroke="#000" stroke-width=".2"/><path d="M11.616 44.81L7.35 42.75a.937.937 0 10-.815 1.689l4.264 2.058a.937.937 0 10.815-1.688zm3.924-2.555l-8.183-3.95a.937.937 0 10-.815 1.688l8.183 3.95a.934.934 0 001.252-.436.937.937 0 00-.437-1.252z" fill="#000"/></svg>