<svg width="32" height="32" fill="none" xmlns="http://www.w3.org/2000/svg"><path d="M25.607 2.414C24.115.724 21.415 0 17.961 0H7.937c-.706 0-1.306.51-1.418 1.2L2.345 27.462a.856.856 0 00.85.986h6.188l1.554-9.78-.048.308c.11-.69.708-1.2 1.414-1.2h2.94c5.778 0 10.3-2.328 11.622-9.062.04-.2.102-.584.102-.584.376-2.492-.002-4.182-1.36-5.716z" fill="#fff"/><path d="M28.533 9.406c-1.436 6.63-6.018 10.138-13.29 10.138h-2.636L10.64 32h4.276c.618 0 1.144-.446 1.24-1.052l.05-.264.984-6.182.064-.34a1.251 1.251 0 011.238-1.052h.782c5.054 0 9.01-2.036 10.166-7.926.464-2.364.24-4.346-.906-5.778z" fill="#fff"/></svg>