<svg width="50" height="30" fill="none" xmlns="http://www.w3.org/2000/svg"><path d="M34.414 0A15.957 15.957 0 0025 3.047 15.957 15.957 0 0015.586 0C6.992 0 0 6.729 0 15s6.992 15 15.586 15c3.417 0 6.714-1.075 9.414-3.047A15.956 15.956 0 0034.414 30C43.008 30 50 23.271 50 15S43.008 0 34.414 0zM25 6.863c.483.517.92 1.075 1.304 1.663h-2.608c.384-.588.821-1.146 1.304-1.663zm-2.662 4.482h5.324c.239.732.405 1.482.496 2.245h-6.316c.091-.763.257-1.513.496-2.245zm-.496 5.065h6.316a11.67 11.67 0 01-.496 2.245h-5.324a11.664 11.664 0 01-.496-2.245zM25 23.138a12.396 12.396 0 01-1.304-1.664h2.608A12.403 12.403 0 0125 23.138zm9.414 4.042c-2.597 0-5.11-.764-7.218-2.175a15.018 15.018 0 002.856-4.415 14.43 14.43 0 001.12-5.59c0-1.93-.377-3.811-1.12-5.59a15.017 15.017 0 00-2.856-4.415 12.977 12.977 0 017.218-2.176C41.393 2.82 47.07 8.284 47.07 15c0 6.716-5.677 12.18-12.656 12.18z" fill="#000"/></svg>