<svg width="200" height="96" fill="none" xmlns="http://www.w3.org/2000/svg"><path d="M83.56 50.943a652.39 652.39 0 01-2.563 5.432 29.547 29.547 0 01-3.247 5.308c-1.252 1.624-2.718 2.953-4.399 3.978-1.68 1.03-3.715 1.539-6.104 1.539-2.165 0-4.055-.67-5.68-2.009-1.622-1.34-2.465-3.378-2.52-6.117 0-1.254.155-2.594.47-4.023a23.81 23.81 0 011.366-4.238 32.536 32.536 0 012.09-4.063 28.95 28.95 0 012.648-3.678 25.558 25.558 0 013.586-3.424c1.306-1.03 2.618-1.809 3.93-2.353 1.306-.54 2.573-.815 3.8-.815 1.222 0 2.32.345 3.287 1.025.798.63 1.266 1.429 1.411 2.398.14.97-.015 2.04-.469 3.209-.459 1.17-1.167 2.354-2.134 3.553-.968 1.2-2.135 2.309-3.501 3.338-.684.515-1.497 1-2.434 1.455a25.23 25.23 0 01-2.948 1.2 28.248 28.248 0 01-2.902.814c-.913.2-1.651.3-2.22.3-.344.8-.638 1.854-.897 3.168a14.704 14.704 0 00-.255 3.853c.085 1.255.43 2.354 1.028 3.294.598.939 1.606 1.409 3.032 1.409 1.88 0 3.57-.555 5.082-1.67a19.8 19.8 0 004.015-3.977 30.197 30.197 0 002.987-4.793 116.207 116.207 0 002.005-4.193c.17-.4.384-.7.639-.9.254-.2.483-.3.683-.3.2 0 .344.1.429.3.084.2.015.525-.215.98zm-8.882-2.479a14.8 14.8 0 002.863-3.253c.768-1.2 1.296-2.31 1.58-3.339.285-1.03.345-1.884.17-2.568-.17-.685-.598-1.015-1.282-.985-.683.03-1.62.485-2.817 1.37-1.197.884-2.679 2.383-4.44 4.492a32.954 32.954 0 00-3.116 4.453c-.938 1.6-1.611 2.794-2.005 3.593.399 0 .938-.07 1.62-.215.684-.14 1.452-.37 2.305-.684.853-.315 1.72-.715 2.603-1.2.883-.48 1.72-1.034 2.519-1.664z" fill="#fff"/><path d="M110.202 51.16a170.256 170.256 0 01-2.22 4.618 42.182 42.182 0 01-3.026 5.162c-1.131 1.652-2.366 3.064-3.714 4.24-1.344 1.177-2.8 1.765-4.36 1.765-.703 0-1.428-.142-2.178-.421-.754-.28-1.386-.8-1.895-1.554-.513-.755-.82-1.765-.928-3.02-.109-1.26.132-2.868.726-4.829.325-1.117.862-2.392 1.616-3.818a120.901 120.901 0 012.824-4.995c.485-.839.754-1.564.806-2.182.052-.617-.151-.98-.604-1.093-.457-.113-1.168.113-2.14.672-.966.558-2.234 1.593-3.794 3.108-1.4 1.289-3.054 3.22-4.963 5.794-1.909 2.573-3.997 6.186-6.255 10.828-.325.618-.702.98-1.13 1.094-.43.112-1.076.166-1.938.166-.594.054-1.089.084-1.494.084-.406 0-.82.137-1.25.421 1.938-4.03 3.78-8 5.53-11.922a208.02 208.02 0 015.608-11.583c1.023-2.015 1.91-3.412 2.663-4.197.755-.784 1.778-1.146 3.069-1.093.537.06 1.089.157 1.654.294a3.975 3.975 0 001.735.045c-.594.338-1.306 1.063-2.14 2.181a43.864 43.864 0 00-2.583 3.946 106.985 106.985 0 00-2.663 4.829 114.03 114.03 0 00-2.38 4.828 88.32 88.32 0 013.026-3.735 39.916 39.916 0 013.671-3.819c.971-.892 2.169-1.858 3.592-2.897a43.643 43.643 0 014.318-2.77c1.451-.808 2.809-1.44 4.077-1.887 1.263-.446 2.248-.559 2.946-.338a281.814 281.814 0 00-4.44 8.647 109.945 109.945 0 00-1.735 3.608 127.939 127.939 0 00-1.574 3.569 52.372 52.372 0 00-1.25 3.23c-.348 1.01-.58 1.878-.688 2.603-.325 1.736-.325 2.868 0 3.397.326.535.755.8 1.292.8 1.023 0 2.097-.589 3.229-1.765 1.131-1.177 2.206-2.56 3.228-4.157a50.038 50.038 0 002.744-4.829 413.662 413.662 0 001.857-3.78c.325-.725.688-.995 1.088-.798.41.196.42.71.043 1.554z" fill="#fff"/><path d="M140.654 51.257a120.15 120.15 0 01-2.355 4.626 52.105 52.105 0 01-3.124 5.137c-1.14 1.656-2.354 3.071-3.639 4.242-1.285 1.17-2.554 1.81-3.809 1.925-.685.055-1.424-.07-2.224-.385-.8-.315-1.455-.885-1.97-1.71-.515-.826-.814-1.971-.899-3.427-.085-1.455.185-3.296.814-5.527-.684 1.146-1.569 2.471-2.654 3.982a28.514 28.514 0 01-3.509 4.066c-1.655 1.6-3.184 2.541-4.579 2.826-1.399.285-2.584.07-3.554-.64-.97-.715-1.669-1.84-2.099-3.381-.43-1.54-.5-3.356-.215-5.437.285-2.086.985-4.367 2.094-6.853 1.115-2.486 2.755-5.011 4.924-7.577 1.255-1.541 2.784-2.856 4.579-3.942 1.799-1.085 3.624-1.855 5.478-2.31 1.855-.456 3.649-.516 5.394-.17a7.901 7.901 0 014.409 2.485c.624.63.814 1.23.554 1.8-.255.571-.759.801-1.499.686-.46-1.596-1.385-2.57-2.784-2.911-1.4-.345-2.895-.085-4.494.77-1.94 1.086-3.939 2.756-5.994 5.012a45.577 45.577 0 00-5.393 7.238c-.17.285-.43.74-.77 1.37-.345.63-.7 1.356-1.07 2.186-.37.83-.714 1.686-1.029 2.571-.315.885-.53 1.726-.64 2.526-.23 1.485-.13 2.57.3 3.256.43.685 1.029 1.03 1.799 1.03s1.67-.33 2.695-.985c1.029-.655 2.054-1.585 3.084-2.78a50.975 50.975 0 004.064-5.783 153.876 153.876 0 003.554-6.207c.969-1.826 1.839-3.226 2.609-4.197.77-.97 1.839-1.4 3.209-1.285.57.06 1.155.16 1.755.3.599.145 1.209.16 1.839.04-.455.46-1.07 1.3-1.839 2.526a64.252 64.252 0 00-2.395 4.196 56.975 56.975 0 00-2.269 4.842c-.685 1.656-1.17 3.141-1.455 4.452-.685 3.426-.4 5.137.855 5.137.91.06 1.909-.486 2.994-1.626 1.085-1.14 2.155-2.51 3.209-4.111a57.72 57.72 0 002.87-4.842 249.618 249.618 0 001.969-3.812c.4-.74.8-1.03 1.2-.855.41.155.41.665.01 1.526z" fill="#fff"/><path d="M159.985 26.415a110.9 110.9 0 01-6.685 12.812c-2.578 4.258-5.852 8.228-9.827 11.903a69.85 69.85 0 01-.804 2.473 37.553 37.553 0 00-.885 2.964c-.592 2.473-.696 4.422-.324 5.85.376 1.43 1.035 2.348 1.975 2.762.941.414 2.014.332 3.223-.245 1.209-.578 2.347-1.636 3.424-3.17.645-.992 1.275-1.978 1.891-2.97a59.298 59.298 0 001.694-2.881c.508-.934.969-1.8 1.369-2.594.404-.794.738-1.467 1.007-2.02.376-.712.766-1.03 1.166-.948.405.082.414.534.038 1.361a356.94 356.94 0 01-1.934 4.282 32.665 32.665 0 01-2.94 5.11 19.661 19.661 0 01-4.069 4.282c-1.557 1.208-3.359 1.814-5.395 1.814-1.506 0-2.672-.289-3.505-.866a4.701 4.701 0 01-1.773-2.266c-.349-.934-.513-1.978-.485-3.132a23.28 23.28 0 01.362-3.541c.217-1.208.485-2.377.805-3.503.324-1.126.592-2.103.804-2.925a113.138 113.138 0 012.338-7.333 145.128 145.128 0 016.365-15.16 89.59 89.59 0 013.542-6.591c1.449-2.473 2.982-4.244 4.591-5.317 1.609-1.073 2.954-1.429 4.027-1.073 1.072.356 1.703 1.444 1.891 3.253.193 1.823-.438 4.373-1.886 7.669zm-1.209-1.232a22.2 22.2 0 00.964-3.05c.268-1.097.362-1.963.282-2.593-.08-.63-.362-.866-.847-.703-.484.164-1.26 1.044-2.337 2.637-.97 1.429-2.07 3.324-3.303 5.682a145.348 145.348 0 00-3.627 7.457 222.848 222.848 0 00-3.302 7.665 468.532 468.532 0 00-2.498 6.22c1.449-1.481 2.874-3.17 4.272-5.066a94.596 94.596 0 004.026-5.932 81.975 81.975 0 003.547-6.26 91.128 91.128 0 002.823-6.057z" fill="#fff"/><path d="M156.591 60.092c-.393 1.392-.491 2.594-.295 3.595.196 1.002.884 1.564 2.057 1.671.613.113 1.286-.014 2.017-.376.727-.361 1.316-.767 1.767-1.212 1.399-1.392 2.773-3.263 4.118-5.603a146.722 146.722 0 003.785-7.026c.338-.781.701-1.06 1.094-.835.393.225.393.752 0 1.588a601.275 601.275 0 01-2.101 4.348 37.276 37.276 0 01-2.984 5.061c-1.149 1.647-2.395 3.039-3.74 4.182-1.345 1.143-2.803 1.715-4.369 1.715-1.57 0-2.773-.362-3.612-1.09a5.235 5.235 0 01-1.684-2.72c-.279-1.09-.338-2.258-.167-3.513a14.84 14.84 0 01.923-3.557l5.38-13.635c.338-.782.324-1.505-.044-2.174-.364-.67-.629-1.114-.8-1.339l4.623-.083c1.345 0 2.086.24 2.229.708.137.474-.015 1.212-.462 2.218l-6.724 15.644c-.113.39-.251.723-.422 1.001l-.339.836a9.756 9.756 0 01-.25.596zm11.848-27.857c-.166.947-.643 1.758-1.428 2.428-.785.669-1.654 1.006-2.606 1.006s-1.708-.337-2.268-1.006c-.559-.67-.785-1.476-.672-2.428.167-.948.643-1.76 1.428-2.428.785-.67 1.654-1.007 2.606-1.007.953 0 1.723.337 2.312 1.006.584.67.795 1.48.628 2.429z" fill="#fff"/><path d="M199.715 51.16a165.71 165.71 0 01-2.337 4.618 41.74 41.74 0 01-3.186 5.162c-1.191 1.652-2.491 3.064-3.91 4.24-1.414 1.177-2.947 1.765-4.59 1.765-.739 0-1.503-.142-2.292-.421-.794-.28-1.459-.8-1.995-1.554-.541-.755-.863-1.765-.977-3.02-.114-1.26.139-2.868.764-4.829.342-1.117.908-2.392 1.702-3.818a119.397 119.397 0 012.972-4.995c.511-.839.794-1.564.849-2.182.054-.617-.159-.98-.636-1.093-.481-.113-1.23.113-2.252.672-1.018.558-2.352 1.593-3.995 3.108-1.473 1.289-3.215 3.22-5.225 5.794-2.009 2.573-4.207 6.186-6.584 10.828-.343.618-.74.98-1.191 1.094-.452.112-1.131.166-2.039.166-.626.054-1.147.084-1.573.084-.427 0-.864.137-1.315.421 2.039-4.03 3.979-8 5.82-11.922a203.784 203.784 0 015.905-11.583c1.077-2.015 2.009-3.412 2.803-4.197.794-.784 1.871-1.146 3.231-1.093.565.06 1.146.157 1.741.294a4.398 4.398 0 001.826.045c-.625.338-1.374 1.063-2.253 2.181a43.796 43.796 0 00-2.719 3.946 105.58 105.58 0 00-2.803 4.829 111.275 111.275 0 00-2.506 4.828 89.139 89.139 0 013.186-3.735 40.888 40.888 0 013.865-3.819c1.022-.892 2.282-1.858 3.781-2.897a46.302 46.302 0 014.545-2.77c1.528-.808 2.957-1.44 4.292-1.887 1.33-.446 2.367-.559 3.101-.338a277.187 277.187 0 00-4.674 8.647 108.547 108.547 0 00-1.826 3.608 125.617 125.617 0 00-1.657 3.569 50.749 50.749 0 00-1.315 3.23c-.367 1.01-.61 1.878-.724 2.603-.343 1.736-.343 2.868 0 3.397.342.535.794.8 1.359.8 1.077 0 2.208-.589 3.399-1.765 1.191-1.177 2.322-2.56 3.399-4.157a49.508 49.508 0 002.888-4.829 421.633 421.633 0 001.955-3.78c.342-.725.724-.995 1.146-.798.427.196.437.71.045 1.554zM79.928 6.142c-.112-1.27-.626-2.447-1.537-3.528C77.479 1.533 76.27.777 74.778.33c-1.493-.441-3.21-.441-5.15 0-1.939.44-4 1.565-6.187 3.359-2.186 1.798-4.431 4.4-6.725 7.804-2.298 3.402-4.524 7.818-6.682 13.237a300.173 300.173 0 01-3.156 8.05c-.83 2.104-1.62 4.111-2.367 6.016-.746 1.91-1.26 3.14-1.537 3.693-4.432.553-8 .277-10.711-.828-2.71-1.105-4.694-2.642-5.935-4.605-1.246-1.963-1.828-4.178-1.746-6.64.083-2.463.718-4.828 1.91-7.097.18-.339.389-.654.587-.979-1.299-.383-2.254-.998-2.84-1.856-1.121 1.192-1.994 2.443-2.605 3.752-1.105 2.38-1.425 4.798-.955 7.26.47 2.463 1.605 4.692 3.404 6.68 1.799 1.992 4.204 3.581 7.225 4.774 3.016 1.192 6.517 1.73 10.502 1.619a233.942 233.942 0 01-4.276 8.468 105.474 105.474 0 01-4.442 7.551c-1.493-.276-3.156-.47-4.98-.581a52.415 52.415 0 00-5.523-.044 56.423 56.423 0 00-5.44.5c-1.77.247-3.404.596-4.897 1.037-3.71 1.105-6.517 2.506-8.428 4.192C1.914 67.38.726 69.081.255 70.797c-.47 1.716-.29 3.35.539 4.896.829 1.546 2.119 2.782 3.86 3.693 1.745.911 3.859 1.357 6.351 1.328 2.493-.029 5.174-.736 8.054-2.118 2.711-1.275 5.3-3.088 7.764-5.438 2.463-2.351 4.776-5.05 6.934-8.09 2.657.5 5.328 1.052 8.01 1.658a79.463 79.463 0 017.928 2.239 55.088 55.088 0 017.516 3.194 32.087 32.087 0 016.599 4.522c1.382 1.217 2.449 2.613 3.195 4.193.747 1.576 1.232 3.127 1.455 4.649.218 1.522.262 2.947.126 4.275-.14 1.328-.373 2.35-.708 3.073-.165.334-.373.746-.62 1.245-.248.5-.388.912-.417 1.246-.03.335.097.538.373.62.276.083.858-.126 1.746-.62.775-.388 1.464-1.134 2.075-2.24.5-.886.761-2.103.79-3.654.03-1.551-.247-3.238-.829-5.06-.582-1.828-1.484-3.68-2.696-5.56-1.217-1.88-2.822-3.596-4.815-5.147a52.63 52.63 0 00-6.396-4.193 73.355 73.355 0 00-7.098-3.485 106.657 106.657 0 00-7.143-2.739c-2.352-.8-4.553-1.454-6.6-1.948.277-.5.568-.97.874-1.41.305-.442.596-.912.872-1.411 1.494-2.656 2.784-5.09 3.86-7.305a740.42 740.42 0 013.448-6.97c2.933-.499 5.867-1.396 8.8-2.7a48.335 48.335 0 008.39-4.774 48.978 48.978 0 007.345-6.388c2.24-2.38 4.15-4.896 5.732-7.552 1.575-2.656 2.754-5.41 3.53-8.26.77-2.85 1.047-5.656.829-8.424zM17.736 76.28c-2.546 1.217-4.888 1.895-7.017 2.031-2.128.136-3.918-.068-5.353-.62-1.44-.553-2.463-1.367-3.074-2.448-.611-1.08-.664-2.24-.165-3.485.5-1.246 1.644-2.492 3.448-3.737 1.799-1.246 4.359-2.283 7.68-3.112 2.71-.717 5.576-1.105 8.593-1.163 3.016-.054 5.905.223 8.674.829-3.927 5.588-8.19 9.49-12.786 11.705zm56.213-56.982a39.115 39.115 0 01-6.808 10.208 44.489 44.489 0 01-9.673 7.925c-3.627 2.215-7.293 3.737-11.003 4.566.83-1.77 1.673-3.514 2.532-5.23a372.595 372.595 0 012.366-4.648c.829-1.605 1.63-3.127 2.41-4.566 3.21-6.306 6.197-11.134 8.965-14.483 2.77-3.35 5.16-5.628 7.182-6.849 2.022-1.217 3.627-1.575 4.815-1.08 1.188.498 1.784 1.439 1.784 2.82.005 3.83-.853 7.605-2.57 11.337zm21.908 60.481H93.29v-1.227h6.568v1.227H97.29v6.577h-1.438V79.78h.005zm19.49 5.365v1.217h-5.804v-7.804h5.65v1.217h-4.213v2.03h3.737v1.193h-3.737v2.152h4.367v-.005zm14.993 1.212l-2.102-2.966-2.077 2.966h-1.635l2.876-3.98-2.722-3.824h1.625l1.981 2.778 1.958-2.778h1.558l-2.708 3.767 2.909 4.037h-1.663zm12.622-6.577h-2.568v-1.227h6.569v1.227h-2.568v6.577h-1.438V79.78h.005zm13.686-1.227h1.437v7.804h-1.437v-7.803zm12.127 0h1.437v6.578h4.049v1.226h-5.486v-7.803zm21.028 6.592v1.217h-5.804v-7.804h5.65v1.217h-4.213v2.03h3.737v1.193h-3.737v2.152h4.367v-.005z" fill="#fff"/><path d="M45.353 20.238c-.24.15-.558.208-.89.266a4.468 4.468 0 00-.803.19c-.99.358-1.563 1.226-2.115 2.064-.477.727-.929 1.41-1.611 1.716a1.878 1.878 0 01-.962.14c-.654-.067-1.294-.43-1.717-.887-.394-.43-.702-.988-.928-1.681a7.303 7.303 0 01-.178-.645 10.599 10.599 0 01-.125-.635 1.122 1.122 0 00-.019-.116c-.226-1.508-.192-2.899.072-4.057a4.314 4.314 0 001.265-.451c.005 0 .606-.388.649-.422.072-.053.14-.107.202-.165.26-.218.49-.46.688-.717.033-.01.519-.693.447-.708.019-.038.038-.082.057-.126.111-.242.193-.49.246-.736.774.01 1.654.232 2.63.668 1.409.626 2.563 1.794 3.207 3.204a6.343 6.343 0 01.294.771c.004.024.014.044.019.068.25.848.207 1.856-.428 2.259zm-13.743 3.78c-.313-.29-.486-.722-.668-1.182-.178-.441-.356-.897-.678-1.29-.433-.528-1.025-.819-1.645-1.022a12.566 12.566 0 00-1.135-.291l-.207-.044c-1.216-.276-1.928-.707-2.178-1.328-.332-.834.26-1.803.53-2.181a6.67 6.67 0 011.701-1.648 8.853 8.853 0 012.587-1.192c.789-.219 1.558-.296 2.342-.325.005.315.048.62.125.916.024.082.043.16.072.238.02.058.044.111.068.164.057.136.12.262.192.378.024.044.053.088.077.126l.409.485c.831.742 1.865.8 2.02.81-.256 1.25-.275 2.709-.025 4.265.063.383.14.742.231 1.076-.375.776-.827 1.522-1.486 1.987-.673.475-1.721.626-2.332.058zm-7.083-12.815c.125-.257.365-.47.62-.698.197-.18.404-.364.582-.587.654-.834.688-1.87.721-2.88.03-.872.053-1.696.476-2.311.193-.276.452-.485.746-.63.591-.291 1.327-.32 1.923-.155.37.101.736.271 1.101.513.202.136.41.291.611.466a7.671 7.671 0 01.875.892c1.082 1.26 1.828 2.573 2.193 3.785a3.441 3.441 0 00-.442.29c-.034.025-.063.054-.097.079a4.576 4.576 0 00-.226.208c-.053.053-1.11 1.037-1.293 2.482-.87.024-1.731.106-2.635.358a9.484 9.484 0 00-2.88 1.338 6.225 6.225 0 01-1.429-.95c-.663-.596-1.187-1.507-.846-2.2zm6.612-9.128c.062-.703.404-1.309.899-1.575.014-.005.024-.015.038-.02.64-.324 1.424-.116 2.246.102.558.146 1.14.3 1.726.305.746.01 1.443-.222 2.111-.445.601-.2 1.164-.388 1.741-.403 1.462-.039 2.9 1.154 3.337 2.773a4.99 4.99 0 01.154 1.575 8.492 8.492 0 00-.784.402c-1.063.62-4.034 2.506-5.126 4.683-.125-.049-1.495-.529-2.322-.18-.409-1.318-1.202-2.714-2.337-4.042a8.558 8.558 0 00-1.414-1.338c-.178-.591-.322-1.221-.27-1.837z" fill="#fff"/><path d="M38.078 10.82c.148.13.274.276.384.43.053.073.096.151.14.224a2.198 2.198 0 01.27.994 1.882 1.882 0 01-.025.43 2.98 2.98 0 01-.072.345c-.01.039-.024.077-.034.116a2.475 2.475 0 01-.144.354c-.063.131-.14.262-.226.393-.005.005-.005.01-.01.014-.014.025-.033.044-.048.068a3.794 3.794 0 01-.64.698 2.73 2.73 0 01-.182.15c-.039.03-.082.063-.125.092l-.063.044c-.206.14-.418.262-.634.359-.097.043-.193.077-.289.111a2.631 2.631 0 01-.495.121 2.395 2.395 0 01-.452.03h-.072a3.122 3.122 0 01-.866-.15 2.212 2.212 0 01-.303-.132 1.849 1.849 0 01-.73-.673 2.126 2.126 0 01-.188-.378c-.01-.02-.015-.044-.024-.064a2.233 2.233 0 01-.096-.363 3.052 3.052 0 01-.053-.519c0-.14.004-.286.019-.426a3.3 3.3 0 01.072-.427 4.043 4.043 0 01.505-1.216 3.94 3.94 0 01.457-.587c.053-.053.105-.107.163-.155l.072-.063.082-.068c.034-.029.072-.053.106-.077a1.89 1.89 0 01.255-.15c.043-.025.091-.044.134-.064.13-.058.265-.101.4-.135.033-.01.072-.015.105-.025.183-.034.366-.053.544-.053a3.38 3.38 0 011.159.223c.09.034.177.073.26.116.042.025.086.049.129.073a.73.73 0 01.082.049c.105.063.211.135.303.213.048.01.086.043.13.077zm8.265 6.16c-.707-1.687-2.058-3.092-3.721-3.829-.938-.417-1.756-.63-2.462-.703a7.175 7.175 0 00-.438-.029 3.662 3.662 0 00-.063-.514 2.672 2.672 0 00-.125-.436 2.814 2.814 0 00-.178-.387c-.019-.035-.87-1.048-1.125-1.212.164-.33.385-.664.65-.994.211-.262.452-.523.711-.78.962-.945 2.217-1.842 3.438-2.555.068-.038.135-.077.207-.116.154-.087.317-.17.486-.247a4.81 4.81 0 01.461-.18c.37-.116.76-.179 1.135-.116 1.13.19 1.866 1.396 2.092 2.516.154.751.154 1.517.154 2.326 0 .529 0 1.076.048 1.614.034.398.091.795.154 1.188.081.538.154 1.042.168 1.556.02.688-.082 1.648-.673 2.302-.25.286-.568.475-.919.596zm24.133 61.381l6.16-2.1-5.505 3.29c8.726 4.817 14.583-7.916 14.583-7.916-13.135-2.66-14.983 4.318-15.238 6.726zM31.843 56.928l-4.719-4.687 5.257 3.47c-.987-10.6-13.333-9.606-13.333-9.606 4.84 13.627 10.905 11.807 12.795 10.823z" fill="#fff"/></svg>