<svg width="120" height="58" fill="none" xmlns="http://www.w3.org/2000/svg"><path d="M50.136 30.778a396.49 396.49 0 01-1.538 3.282 17.871 17.871 0 01-1.948 3.207 9.71 9.71 0 01-2.64 2.403c-1.008.622-2.229.93-3.662.93-1.299 0-2.433-.405-3.408-1.214-.973-.809-1.478-2.04-1.511-3.695 0-.758.092-1.568.28-2.431.19-.86.462-1.715.82-2.56.36-.846.779-1.664 1.255-2.455a17.485 17.485 0 011.589-2.222 15.38 15.38 0 012.151-2.069c.784-.622 1.571-1.093 2.358-1.422.784-.326 1.544-.492 2.28-.492.733 0 1.392.208 1.972.619.48.38.76.864.847 1.45.084.585-.009 1.231-.281 1.938-.276.706-.7 1.422-1.28 2.146a11.834 11.834 0 01-2.102 2.017c-.41.311-.897.604-1.46.88-.562.274-1.152.515-1.768.724-.617.208-1.197.371-1.742.492-.547.12-.99.181-1.331.181-.207.483-.384 1.12-.54 1.914a8.947 8.947 0 00-.152 2.328c.051.758.258 1.422.617 1.99.359.568.963.851 1.819.851a4.984 4.984 0 003.05-1.008 11.925 11.925 0 002.408-2.403c.7-.93 1.299-1.897 1.793-2.896.493-1 .897-1.845 1.203-2.533.101-.242.23-.423.383-.544.152-.12.29-.18.41-.18s.206.06.257.18c.05.121.009.317-.129.592zm-5.33-1.497a8.924 8.924 0 001.718-1.966c.461-.725.778-1.395.949-2.017.17-.622.206-1.138.102-1.552-.102-.414-.36-.613-.77-.595-.41.018-.972.293-1.69.828-.718.534-1.607 1.44-2.663 2.714a19.917 19.917 0 00-1.87 2.69c-.563.966-.967 1.688-1.203 2.171.239 0 .562-.042.972-.13a9.6 9.6 0 001.383-.413 11.58 11.58 0 001.562-.725c.53-.29 1.032-.625 1.51-1.006z" fill="#383838"/><path d="M66.121 30.91c-.356.778-.797 1.708-1.332 2.79a25.527 25.527 0 01-1.816 3.118c-.678.998-1.42 1.85-2.228 2.562-.806.71-1.68 1.066-2.616 1.066a3.71 3.71 0 01-1.306-.255c-.453-.169-.832-.483-1.137-.939-.309-.456-.492-1.066-.557-1.824-.066-.761.079-1.733.435-2.917.195-.675.518-1.446.97-2.307a73.249 73.249 0 011.694-3.018c.291-.507.453-.945.484-1.318.03-.373-.09-.593-.362-.66-.275-.069-.702.067-1.284.405-.58.338-1.34.963-2.277 1.878-.84.779-1.832 1.945-2.978 3.5-1.145 1.555-2.398 3.738-3.753 6.543-.195.373-.421.592-.678.66-.258.068-.645.1-1.163.1-.356.034-.653.051-.896.051s-.492.083-.75.255a277.793 277.793 0 003.318-7.203c1.049-2.366 2.172-4.7 3.365-6.998.614-1.218 1.145-2.062 1.598-2.535.452-.474 1.066-.694 1.841-.66.322.035.653.094.993.177a2.35 2.35 0 001.04.026c-.356.205-.783.643-1.284 1.318a26.72 26.72 0 00-1.55 2.385 64.801 64.801 0 00-1.597 2.917 69.216 69.216 0 00-1.428 2.917 53.385 53.385 0 011.815-2.257 24.06 24.06 0 012.203-2.307 25.136 25.136 0 012.155-1.75 26.183 26.183 0 012.59-1.674c.872-.488 1.686-.87 2.447-1.14.758-.27 1.349-.337 1.767-.204a171.387 171.387 0 00-2.663 5.224 64.778 64.778 0 00-1.041 2.18 77.47 77.47 0 00-.945 2.156c-.291.693-.54 1.345-.75 1.952-.209.61-.347 1.134-.412 1.572-.195 1.049-.195 1.733 0 2.053.195.323.452.483.775.483.614 0 1.258-.356 1.937-1.066a16.213 16.213 0 001.937-2.512 30.307 30.307 0 001.646-2.917c.484-.98.854-1.742 1.114-2.284.196-.438.413-.6.654-.482.246.118.251.429.025.938z" fill="#383838"/><path d="M84.392 30.968a72.996 72.996 0 01-1.412 2.795 31.641 31.641 0 01-1.875 3.103c-.684 1-1.413 1.856-2.183 2.563-.771.707-1.533 1.094-2.286 1.163-.41.034-.854-.042-1.334-.232-.48-.19-.873-.535-1.182-1.034-.309-.498-.489-1.19-.54-2.07-.05-.88.111-1.991.489-3.339a34.7 34.7 0 01-1.593 2.405 17.205 17.205 0 01-2.105 2.457c-.993.967-1.91 1.535-2.747 1.708-.84.172-1.55.042-2.133-.387-.582-.432-1.001-1.112-1.26-2.043-.257-.93-.3-2.028-.128-3.285.17-1.26.59-2.638 1.256-4.14.67-1.502 1.653-3.028 2.955-4.578.752-.93 1.67-1.726 2.747-2.381 1.08-.656 2.174-1.121 3.287-1.396 1.113-.276 2.19-.312 3.236-.103a4.731 4.731 0 012.645 1.502c.375.38.49.743.333 1.088-.153.344-.456.483-.9.413-.275-.963-.83-1.553-1.67-1.758-.84-.209-1.737-.052-2.696.465-1.164.656-2.364 1.665-3.596 3.028a27.527 27.527 0 00-3.236 4.373 22.69 22.69 0 00-.462.828 21.7 21.7 0 00-1.26 2.874 7.749 7.749 0 00-.384 1.526c-.138.897-.078 1.553.18 1.967.258.414.618.623 1.08.623.462 0 1.002-.2 1.616-.596.618-.396 1.233-.958 1.85-1.68a30.728 30.728 0 002.44-3.493 92.353 92.353 0 002.132-3.75c.581-1.104 1.103-1.95 1.565-2.536.462-.586 1.104-.846 1.926-.776.342.036.692.096 1.052.18.36.088.726.097 1.104.025-.273.278-.642.786-1.104 1.526a38.865 38.865 0 00-1.436 2.535c-.498.95-.951 1.925-1.362 2.926-.41 1-.702 1.898-.873 2.69-.41 2.07-.24 3.103.513 3.103.546.036 1.146-.293 1.797-.982.65-.69 1.292-1.517 1.925-2.484a34.908 34.908 0 001.722-2.926c.513-.982.906-1.75 1.181-2.302.24-.448.48-.623.72-.517.246.094.246.402.006.922z" fill="#383838"/><path d="M95.99 15.96a67.16 67.16 0 01-4.01 7.74c-1.547 2.572-3.511 4.97-5.896 7.191-.13.433-.291.93-.483 1.494-.195.564-.37 1.163-.53 1.791-.356 1.494-.418 2.671-.195 3.535.225.863.62 1.418 1.185 1.668.565.25 1.208.2 1.934-.148.725-.349 1.408-.988 2.054-1.916.387-.598.765-1.194 1.135-1.793.37-.596.708-1.177 1.016-1.741a69.37 69.37 0 001.425-2.788c.226-.43.46-.622.7-.573.243.05.249.323.023.823-.29.663-.677 1.526-1.16 2.587a19.809 19.809 0 01-1.764 3.087 11.849 11.849 0 01-2.442 2.587c-.934.73-2.015 1.096-3.237 1.096-.903 0-1.603-.174-2.103-.523a2.84 2.84 0 01-1.064-1.37c-.209-.563-.307-1.194-.29-1.892a14 14 0 01.217-2.139c.13-.73.29-1.436.483-2.116.194-.68.355-1.27.482-1.768a68.382 68.382 0 011.403-4.43 87.993 87.993 0 013.819-9.16 54.518 54.518 0 012.125-3.981c.87-1.494 1.79-2.564 2.755-3.212.965-.648 1.772-.863 2.416-.648.643.215 1.022.872 1.134 1.965.116 1.101-.262 2.642-1.131 4.633zm-.725-.745c.226-.564.418-1.177.579-1.843.16-.663.217-1.186.17-1.567-.049-.38-.218-.523-.509-.424-.29.099-.756.63-1.403 1.593-.581.863-1.242 2.008-1.981 3.433a87.854 87.854 0 00-2.176 4.505 134.03 134.03 0 00-1.981 4.63 281.532 281.532 0 00-1.5 3.76 28.835 28.835 0 002.564-3.062 57.055 57.055 0 002.416-3.584 49.713 49.713 0 002.128-3.781 55.52 55.52 0 001.693-3.66z" fill="#383838"/><path d="M93.954 36.305c-.235.842-.294 1.568-.176 2.173.117.605.53.944 1.234 1.01.368.067.771-.01 1.21-.228.436-.219.79-.464 1.06-.732.84-.841 1.664-1.972 2.471-3.386a89.085 89.085 0 002.271-4.244c.203-.472.421-.64.656-.505.236.136.236.455 0 .96-.335.708-.756 1.584-1.26 2.626a22.6 22.6 0 01-1.79 3.058c-.69.995-1.438 1.836-2.245 2.527-.807.69-1.681 1.036-2.62 1.036-.943 0-1.665-.218-2.168-.658a3.164 3.164 0 01-1.01-1.644 5.51 5.51 0 01-.1-2.123 8.99 8.99 0 01.553-2.148l3.228-8.239c.203-.472.194-.909-.027-1.313-.218-.404-.377-.673-.48-.809l2.775-.05c.806 0 1.251.145 1.337.428.082.286-.01.732-.277 1.34l-4.035 9.451c-.068.236-.15.437-.253.605l-.203.505a5.777 5.777 0 01-.15.36zm7.11-16.83c-.1.572-.386 1.063-.857 1.467-.472.404-.993.608-1.564.608-.572 0-1.025-.204-1.36-.608-.337-.404-.472-.892-.404-1.467.1-.573.386-1.063.857-1.467.471-.404.992-.608 1.564-.608.57 0 1.033.204 1.387.608.35.404.477.894.377 1.467z" fill="#383838"/><path d="M119.829 30.91c-.375.778-.84 1.708-1.402 2.79a25.228 25.228 0 01-1.912 3.118 13.644 13.644 0 01-2.346 2.562c-.848.71-1.768 1.066-2.754 1.066-.443 0-.902-.086-1.375-.255-.476-.169-.875-.483-1.197-.939-.324-.456-.518-1.066-.586-1.824-.069-.761.083-1.733.458-2.917.206-.675.545-1.446 1.021-2.307a72.591 72.591 0 011.784-3.018c.306-.507.476-.945.509-1.318.032-.373-.096-.593-.381-.66-.289-.069-.739.067-1.352.405-.61.338-1.411.963-2.397 1.878-.884.779-1.929 1.945-3.135 3.5-1.205 1.555-2.524 3.738-3.95 6.543-.206.373-.444.592-.715.66-.27.068-.679.1-1.224.1-.375.034-.687.051-.943.051-.256 0-.518.083-.79.255a271.297 271.297 0 003.493-7.203c1.105-2.366 2.287-4.7 3.543-6.998.646-1.218 1.206-2.062 1.682-2.535.476-.474 1.122-.694 1.938-.66.34.035.688.094 1.045.177.357.086.721.095 1.096.026-.375.205-.825.643-1.352 1.318a26.254 26.254 0 00-1.631 2.385 62.862 62.862 0 00-1.682 2.917 67.931 67.931 0 00-1.504 2.917 53.956 53.956 0 011.911-2.257 24.75 24.75 0 012.32-2.307 26.075 26.075 0 012.268-1.75 27.773 27.773 0 012.727-1.674c.917-.488 1.775-.87 2.576-1.14.797-.27 1.42-.337 1.86-.204a167.374 167.374 0 00-2.804 5.224 65.165 65.165 0 00-1.096 2.18 74.49 74.49 0 00-.994 2.156 30.441 30.441 0 00-.789 1.952c-.22.61-.366 1.134-.435 1.572-.205 1.049-.205 1.733 0 2.053.206.323.477.483.816.483.646 0 1.325-.356 2.039-1.066a16.316 16.316 0 002.04-2.512 29.909 29.909 0 001.732-2.917c.51-.98.9-1.742 1.173-2.284.206-.438.435-.6.688-.482.256.118.262.429.027.938zM47.957 3.711c-.067-.767-.376-1.479-.923-2.132S45.763.47 44.867.2c-.896-.266-1.926-.266-3.09 0-1.163.267-2.4.947-3.712 2.03-1.312 1.087-2.66 2.66-4.035 4.715-1.38 2.056-2.715 4.724-4.01 7.998a182.39 182.39 0 01-1.893 4.864c-.498 1.27-.972 2.483-1.42 3.634-.448 1.154-.757 1.897-.922 2.231-2.66.334-4.8.167-6.427-.5-1.627-.668-2.816-1.596-3.561-2.782-.748-1.186-1.097-2.525-1.048-4.012a9.868 9.868 0 011.147-4.288c.107-.205.232-.395.352-.591-.78-.231-1.353-.603-1.705-1.122-.672.72-1.196 1.476-1.563 2.267-.663 1.438-.855 2.899-.573 4.387.283 1.487.963 2.834 2.043 4.035 1.08 1.204 2.522 2.164 4.335 2.884 1.81.72 3.91 1.046 6.301.979a141.913 141.913 0 01-2.566 5.116 63.81 63.81 0 01-2.665 4.562 24.716 24.716 0 00-2.988-.351 31.245 31.245 0 00-3.313-.027c-1.115.05-2.2.15-3.265.302-1.062.15-2.042.36-2.938.627-2.226.667-3.91 1.514-5.057 2.533C1.148 40.71.435 41.738.154 42.774c-.283 1.037-.175 2.024.322 2.958.498.934 1.272 1.68 2.316 2.231 1.047.551 2.316.82 3.811.803 1.496-.018 3.105-.445 4.833-1.28 1.626-.77 3.18-1.865 4.657-3.285 1.479-1.42 2.866-3.052 4.16-4.888 1.595.302 3.198.635 4.807 1.001a47.41 47.41 0 014.757 1.353 32.93 32.93 0 014.51 1.93 19.245 19.245 0 013.959 2.732 7.79 7.79 0 011.917 2.533c.448.952.74 1.89.873 2.809.131.92.157 1.78.076 2.583-.085.802-.224 1.42-.425 1.856-.099.202-.224.451-.372.753-.149.302-.233.55-.25.753-.018.202.058.325.223.374.166.05.515-.076 1.048-.374.465-.235.878-.686 1.245-1.353.3-.536.457-1.271.474-2.208.018-.938-.148-1.957-.497-3.058-.35-1.104-.89-2.222-1.618-3.359-.73-1.136-1.693-2.172-2.889-3.11a31.566 31.566 0 00-3.837-2.533 43.884 43.884 0 00-4.26-2.105 63.755 63.755 0 00-4.285-1.655 45.593 45.593 0 00-3.96-1.177c.166-.302.34-.586.524-.852.183-.267.358-.55.524-.852a84.587 84.587 0 002.316-4.414 450.508 450.508 0 012.068-4.21 22 22 0 005.28-1.632 28.948 28.948 0 005.034-2.884 29.443 29.443 0 004.407-3.86 26.206 26.206 0 003.44-4.562 20.177 20.177 0 002.117-4.99c.463-1.722.629-3.418.498-5.09zM10.64 46.085c-1.527.735-2.932 1.145-4.21 1.227-1.277.082-2.35-.04-3.211-.374-.864-.334-1.478-.826-1.845-1.48-.366-.652-.398-1.352-.099-2.105.3-.753.986-1.505 2.069-2.258 1.08-.752 2.615-1.379 4.608-1.88a21.587 21.587 0 015.155-.703c1.81-.032 3.544.135 5.205.501-2.356 3.377-4.913 5.734-7.672 7.072zM44.37 11.66a23.647 23.647 0 01-4.085 6.167 26.73 26.73 0 01-5.804 4.788c-2.177 1.338-4.376 2.258-6.602 2.759a137.846 137.846 0 011.519-3.16 236.6 236.6 0 011.42-2.809 157.9 157.9 0 011.446-2.758c1.926-3.81 3.718-6.727 5.38-8.75 1.66-2.024 3.095-3.4 4.308-4.138 1.213-.735 2.176-.952 2.889-.653.713.301 1.07.87 1.07 1.704.003 2.314-.512 4.595-1.541 6.85zM57.514 48.2h-1.54v-.741h3.94v.74h-1.54v3.975h-.863V48.2h.003zm11.694 3.241v.735h-3.482v-4.714h3.39v.735h-2.528v1.227h2.242v.72h-2.242v1.3h2.62v-.003zm8.996.733l-1.261-1.792-1.246 1.792h-.981l1.725-2.404-1.633-2.311h.975l1.189 1.678 1.174-1.678h.935l-1.624 2.275 1.745 2.44h-.998zm7.573-3.974h-1.54v-.741h3.94v.74h-1.54v3.975h-.862V48.2h.002zm8.212-.741h.862v4.715h-.862v-4.715zm7.276 0h.862v3.974h2.43v.74h-3.292V47.46zm12.617 3.982v.735h-3.483v-4.714h3.39v.735h-2.527v1.227h2.242v.72h-2.242v1.3h2.62v-.003z" fill="#383838"/><path d="M27.212 12.227c-.145.09-.335.126-.534.16-.159.027-.32.056-.482.115-.594.217-.938.74-1.27 1.247-.285.44-.556.853-.966 1.037a1.12 1.12 0 01-.577.085 1.705 1.705 0 01-1.03-.536c-.237-.26-.421-.597-.557-1.016a4.464 4.464 0 01-.107-.39 6.415 6.415 0 01-.075-.383.424.424 0 00-.011-.07c-.136-.911-.116-1.752.043-2.452a2.55 2.55 0 00.759-.272c.003 0 .363-.234.39-.255a2.763 2.763 0 00.534-.533c.02-.005.31-.418.268-.427l.034-.076a2.17 2.17 0 00.147-.445c.465.005.993.14 1.579.404a3.887 3.887 0 012.1 2.401c.003.015.009.026.011.041.15.512.125 1.122-.256 1.365zm-8.246 2.283c-.188-.175-.291-.435-.401-.714-.107-.266-.213-.541-.407-.779-.26-.319-.614-.494-.986-.617a7.527 7.527 0 00-.681-.176l-.125-.027c-.73-.166-1.156-.427-1.306-.802-.2-.504.155-1.09.317-1.318a4.018 4.018 0 011.021-.995 5.289 5.289 0 011.552-.72 5.972 5.972 0 011.405-.197c.003.19.03.375.075.554.015.05.026.096.044.143.011.035.026.067.04.1.035.082.072.158.116.228.014.026.031.053.046.076l.245.293c.5.448 1.12.483 1.212.489-.153.756-.165 1.637-.015 2.577.038.231.084.448.139.65-.225.469-.496.92-.892 1.2-.404.288-1.033.379-1.399.036zm-4.25-7.742c.075-.155.22-.284.372-.421.119-.109.243-.22.35-.355.392-.504.412-1.13.432-1.74.018-.526.032-1.024.286-1.396a1.16 1.16 0 01.447-.38 1.679 1.679 0 011.154-.095c.222.062.442.164.66.31.122.083.246.177.367.282.15.129.297.278.447.448l.078.09c.65.762 1.097 1.556 1.316 2.288a2.07 2.07 0 00-.265.176c-.02.014-.038.032-.058.046-.046.041-.093.082-.136.126-.032.033-.666.627-.776 1.5a6.376 6.376 0 00-1.58.216 5.67 5.67 0 00-1.73.809 3.73 3.73 0 01-.856-.574c-.398-.36-.713-.911-.508-1.33zm3.967-5.514c.038-.425.243-.791.54-.952.009-.003.014-.009.023-.012.384-.196.854-.07 1.347.062.335.088.684.181 1.036.184.447.006.866-.134 1.267-.27.36-.12.698-.233 1.044-.242.877-.024 1.74.697 2.002 1.675.081.299.11.618.093.952a5.072 5.072 0 00-.47.243c-.638.374-2.421 1.514-3.076 2.828-.075-.029-.898-.319-1.394-.108-.245-.796-.721-1.64-1.402-2.442a5.149 5.149 0 00-.848-.808c-.107-.358-.194-.738-.162-1.11z" fill="#383838"/><path d="M22.846 6.537c.09.079.165.167.231.26.032.044.058.091.084.135a1.336 1.336 0 01.156.5c.003.033.006.065.006.1a1.137 1.137 0 01-.015.261c-.009.07-.026.138-.043.208-.006.023-.015.047-.02.07a1.992 1.992 0 01-.222.451l-.006.009c-.009.015-.02.026-.03.04a2.295 2.295 0 01-.493.512.869.869 0 01-.075.057c-.011.009-.026.018-.037.026a2.488 2.488 0 01-.38.217 2.212 2.212 0 01-.174.067 1.573 1.573 0 01-.568.091h-.044a1.86 1.86 0 01-.519-.09 1.314 1.314 0 01-.182-.08 1.112 1.112 0 01-.438-.407 1.292 1.292 0 01-.113-.228c-.006-.012-.008-.026-.014-.038a1.85 1.85 0 01-.078-.79 2.45 2.45 0 01.346-.993 2.37 2.37 0 01.274-.355c.032-.032.064-.064.098-.094.015-.011.03-.026.044-.038l.049-.04c.02-.018.043-.033.063-.048.05-.035.101-.064.153-.09.026-.015.055-.027.08-.038a1.39 1.39 0 01.24-.082c.02-.006.043-.01.064-.015a1.783 1.783 0 01.453-.026 2.012 2.012 0 01.568.128 1.27 1.27 0 01.234.115 1.36 1.36 0 01.23.158c.03.006.052.026.078.047zm4.96 3.722a4.398 4.398 0 00-2.233-2.313c-.563-.252-1.053-.381-1.477-.425a4.236 4.236 0 00-.263-.018 2.213 2.213 0 00-.037-.31 1.703 1.703 0 00-.182-.498c-.012-.02-.522-.632-.675-.732.098-.2.23-.401.39-.6.126-.158.27-.317.426-.472.577-.57 1.33-1.113 2.063-1.543.04-.024.081-.047.124-.07a3.06 3.06 0 01.569-.258c.222-.07.456-.108.68-.07.679.114 1.12.843 1.256 1.52.092.453.092.916.092 1.405 0 .32 0 .65.029.975.02.24.055.48.092.718.05.325.092.63.101.94.012.416-.049.995-.404 1.39-.15.174-.34.288-.55.361zm14.48 37.084l3.696-1.27-3.304 1.99c5.236 2.91 8.75-4.783 8.75-4.783-7.88-1.608-8.99 2.608-9.142 4.063zM19.105 34.394l-2.83-2.832 3.154 2.097c-.593-6.405-8-5.804-8-5.804 2.904 8.233 6.543 7.134 7.676 6.539z" fill="#383838"/></svg>