<svg width="226" height="110" fill="none" xmlns="http://www.w3.org/2000/svg"><g clip-path="url(#clip0)"><path d="M94.606 58.707c-.872 1.9-1.803 3.915-2.8 6.037a32.937 32.937 0 01-3.547 5.897c-1.368 1.805-2.97 3.283-4.806 4.421-1.836 1.144-4.059 1.71-6.669 1.71-2.364 0-4.43-.744-6.205-2.232-1.771-1.488-2.692-3.754-2.752-6.797 0-1.394.17-2.883.512-4.471.344-1.583.84-3.154 1.493-4.71a36.403 36.403 0 012.283-4.515 32.168 32.168 0 012.893-4.087 28.135 28.135 0 013.918-3.804c1.427-1.144 2.86-2.01 4.293-2.616 1.427-.6 2.811-.905 4.152-.905 1.335 0 2.533.383 3.59 1.138.872.7 1.384 1.589 1.542 2.666.153 1.077-.016 2.266-.512 3.565-.501 1.3-1.275 2.616-2.332 3.949-1.057 1.333-2.332 2.566-3.825 3.71-.746.572-1.634 1.11-2.659 1.616a26.91 26.91 0 01-3.22 1.333 30.46 30.46 0 01-3.17.905c-.998.222-1.804.333-2.425.333-.376.889-.698 2.06-.98 3.521a16.569 16.569 0 00-.279 4.282c.093 1.394.469 2.616 1.123 3.66.653 1.044 1.754 1.566 3.312 1.566 2.054 0 3.901-.617 5.552-1.855a21.813 21.813 0 004.386-4.42 33.655 33.655 0 003.264-5.326 130.243 130.243 0 002.19-4.66c.185-.444.42-.778.697-1 .278-.222.529-.333.747-.333.218 0 .376.111.468.333.093.222.017.584-.234 1.089zm-9.703-2.755a16.364 16.364 0 003.127-3.615c.839-1.333 1.416-2.566 1.727-3.71.31-1.144.376-2.094.185-2.855-.185-.76-.654-1.127-1.4-1.093-.746.033-1.77.538-3.078 1.521-1.308.983-2.926 2.65-4.85 4.993a36.627 36.627 0 00-3.405 4.948c-1.024 1.777-1.76 3.105-2.19 3.993.436 0 1.024-.078 1.77-.239.747-.155 1.586-.41 2.518-.76a20.95 20.95 0 002.844-1.333c.964-.533 1.88-1.15 2.752-1.85z" fill="#DAC6B3"/><path d="M125.766 58.901a194.99 194.99 0 01-2.566 5.232 47.737 47.737 0 01-3.498 5.848c-1.308 1.871-2.735 3.47-4.294 4.804-1.552 1.333-3.236 1.999-5.039 1.999-.812 0-1.651-.161-2.517-.478-.872-.316-1.602-.905-2.191-1.76-.594-.855-.948-2-1.073-3.421-.125-1.427.152-3.249.839-5.47.376-1.267.997-2.71 1.869-4.327a136.702 136.702 0 013.263-5.659c.562-.95.872-1.771.932-2.471.06-.7-.174-1.11-.697-1.239-.529-.127-1.352.128-2.474.761-1.117.633-2.582 1.805-4.386 3.521-1.618 1.46-3.53 3.649-5.737 6.565-2.207 2.915-4.62 7.008-7.23 12.267-.376.7-.812 1.111-1.308 1.239-.496.128-1.242.189-2.239.189a20.13 20.13 0 01-1.727.094c-.469 0-.948.156-1.444.478a514.46 514.46 0 006.391-13.506 233.703 233.703 0 016.484-13.124c1.182-2.282 2.206-3.865 3.078-4.754.872-.888 2.054-1.3 3.547-1.238.621.067 1.258.178 1.912.333a4.685 4.685 0 002.005.05c-.686.383-1.509 1.205-2.473 2.471-.965 1.272-1.962 2.76-2.986 4.471a120.864 120.864 0 00-3.078 5.47 128.078 128.078 0 00-2.752 5.47 100.385 100.385 0 013.498-4.231c1.4-1.616 2.811-3.06 4.244-4.326 1.123-1.011 2.507-2.105 4.152-3.282a50.597 50.597 0 014.991-3.138c1.678-.917 3.247-1.633 4.713-2.138 1.46-.506 2.599-.633 3.405-.384a316.857 316.857 0 00-5.132 9.797 120.306 120.306 0 00-2.005 4.087 142.104 142.104 0 00-1.82 4.043 58.636 58.636 0 00-1.444 3.66c-.403 1.144-.67 2.127-.796 2.95-.375 1.965-.375 3.248 0 3.848.376.605.872.905 1.493.905 1.183 0 2.425-.666 3.732-2 1.308-1.332 2.55-2.898 3.733-4.709a56.554 56.554 0 003.171-5.47 463.318 463.318 0 002.146-4.282c.376-.822.796-1.127 1.259-.905.474.222.485.805.049 1.76z" fill="#DAC6B3"/><path d="M158.423 58.901a133.453 133.453 0 01-2.566 5.137 58.266 58.266 0 01-3.405 5.704c-1.243 1.838-2.567 3.41-3.967 4.71-1.4 1.299-2.784 2.01-4.152 2.137-.746.061-1.552-.077-2.424-.427-.872-.35-1.586-.983-2.147-1.9-.561-.916-.888-2.188-.98-3.804-.093-1.616.201-3.66.888-6.136-.747 1.271-1.711 2.743-2.893 4.42a31.594 31.594 0 01-3.825 4.515c-1.804 1.777-3.471 2.822-4.991 3.138-1.526.317-2.817.078-3.874-.71-1.057-.795-1.82-2.044-2.288-3.755-.469-1.71-.545-3.727-.234-6.037.31-2.316 1.073-4.848 2.282-7.608 1.215-2.76 3.003-5.565 5.367-8.414 1.368-1.71 3.035-3.171 4.991-4.376 1.961-1.205 3.95-2.06 5.971-2.566 2.022-.505 3.978-.572 5.879-.189 1.896.383 3.498 1.3 4.806 2.76.681.7.888 1.367.604 2-.277.633-.828.888-1.634.76-.501-1.771-1.509-2.854-3.035-3.232-1.525-.383-3.154-.094-4.898.856-2.114 1.205-4.293 3.06-6.533 5.564a50.544 50.544 0 00-5.878 8.036c-.186.317-.469.822-.84 1.522-.375.7-.762 1.505-1.165 2.427-.404.922-.78 1.872-1.123 2.854a14.392 14.392 0 00-.697 2.805c-.251 1.65-.142 2.855.327 3.615.468.761 1.122 1.145 1.961 1.145s1.82-.367 2.937-1.095c1.122-.727 2.239-1.76 3.361-3.087a56.419 56.419 0 004.43-6.42 170.672 170.672 0 003.874-6.892c1.057-2.027 2.005-3.582 2.844-4.66.839-1.077 2.005-1.555 3.498-1.427.621.067 1.258.178 1.912.333a4.6 4.6 0 002.005.045c-.496.51-1.166 1.444-2.005 2.804a71.765 71.765 0 00-2.61 4.66 63.833 63.833 0 00-2.473 5.376c-.747 1.838-1.275 3.487-1.586 4.942-.746 3.804-.436 5.704.932 5.704.992.066 2.081-.539 3.264-1.805 1.182-1.266 2.348-2.788 3.497-4.565a64.233 64.233 0 003.128-5.376 275.79 275.79 0 002.147-4.232c.435-.822.871-1.144 1.307-.95.447.173.447.739.011 1.694z" fill="#DAC6B3"/><path d="M181.372 29.512c-2.179 4.943-4.756 9.874-7.742 14.79-2.986 4.914-6.778 9.496-11.382 13.739-.25.827-.561 1.777-.931 2.854a43.675 43.675 0 00-1.025 3.421c-.686 2.855-.806 5.104-.376 6.753.436 1.65 1.199 2.71 2.289 3.188 1.089.478 2.332.383 3.732-.283 1.4-.666 2.719-1.888 3.966-3.66a192.785 192.785 0 002.19-3.426 68.727 68.727 0 001.962-3.327 108.795 108.795 0 001.585-2.993c.469-.917.856-1.694 1.166-2.333.436-.822.888-1.188 1.352-1.094.468.094.479.617.043 1.572a403.786 403.786 0 01-2.239 4.942 37.849 37.849 0 01-3.405 5.898 22.76 22.76 0 01-4.713 4.943c-1.804 1.394-3.89 2.094-6.25 2.094-1.743 0-3.094-.334-4.059-1a5.435 5.435 0 01-2.054-2.616c-.403-1.077-.594-2.282-.561-3.615.033-1.333.169-2.694.42-4.087a41.54 41.54 0 01.931-4.044c.376-1.3.687-2.426.932-3.376.746-2.66 1.645-5.481 2.708-8.464a161.296 161.296 0 013.454-8.891 166.547 166.547 0 013.918-8.608c1.367-2.788 2.735-5.326 4.102-7.609 1.678-2.854 3.454-4.898 5.318-6.136 1.863-1.239 3.421-1.65 4.664-1.239 1.242.411 1.972 1.666 2.19 3.755.223 2.104-.507 5.048-2.185 8.852zm-1.4-1.422a25.575 25.575 0 001.117-3.52c.31-1.267.419-2.267.327-2.994-.093-.728-.42-1-.981-.811-.561.189-1.46 1.205-2.708 3.043-1.122 1.65-2.397 3.838-3.825 6.56a166.626 166.626 0 00-4.2 8.607 253.31 253.31 0 00-3.825 8.847 533.036 533.036 0 00-2.893 7.18c1.678-1.71 3.329-3.659 4.947-5.847a109.2 109.2 0 004.664-6.848 94.75 94.75 0 004.108-7.225 104.537 104.537 0 003.269-6.992z" fill="#DAC6B3"/><path d="M178.108 68.315c-.435 1.583-.544 2.949-.327 4.087.218 1.139.981 1.778 2.283 1.9.681.127 1.428-.017 2.24-.428.806-.41 1.46-.872 1.961-1.377 1.553-1.583 3.078-3.71 4.571-6.37a168.43 168.43 0 004.201-7.986c.376-.889.779-1.205 1.215-.95.436.255.436.855 0 1.805-.621 1.333-1.4 2.982-2.332 4.943a42.729 42.729 0 01-3.313 5.753c-1.274 1.872-2.658 3.455-4.151 4.754-1.493 1.3-3.111 1.95-4.849 1.95-1.744 0-3.079-.412-4.01-1.24a5.962 5.962 0 01-1.869-3.092c-.311-1.239-.376-2.566-.185-3.993a17.132 17.132 0 011.024-4.043l5.971-15.5c.376-.89.36-1.711-.049-2.472-.403-.76-.697-1.266-.888-1.522l5.133-.094c1.492 0 2.315.272 2.473.805.153.539-.016 1.378-.512 2.522l-7.464 17.782a4.651 4.651 0 01-.469 1.139l-.376.95c-.125.327-.218.55-.278.677zm13.153-31.667c-.185 1.078-.714 2-1.586 2.76-.871.761-1.836 1.145-2.893 1.145-1.057 0-1.896-.384-2.517-1.145-.621-.76-.872-1.677-.746-2.76.185-1.077.713-1.999 1.585-2.76.872-.76 1.836-1.144 2.893-1.144 1.057 0 1.913.383 2.566 1.144.649.761.883 1.683.698 2.76z" fill="#DAC6B3"/><path d="M225.689 58.901a189.095 189.095 0 01-2.566 5.232 47.487 47.487 0 01-3.498 5.848c-1.307 1.871-2.735 3.47-4.293 4.804-1.553 1.333-3.237 1.999-5.04 1.999-.812 0-1.651-.161-2.517-.478-.872-.316-1.602-.905-2.19-1.76-.594-.855-.948-2-1.074-3.421-.125-1.427.153-3.249.839-5.47.376-1.267.997-2.71 1.869-4.327a136.843 136.843 0 013.264-5.659c.561-.95.871-1.771.931-2.471.06-.7-.174-1.11-.697-1.239-.528-.127-1.351.128-2.474.761-1.116.633-2.582 1.805-4.386 3.521-1.618 1.46-3.53 3.649-5.737 6.565-2.206 2.915-4.62 7.008-7.23 12.267-.376.7-.812 1.111-1.307 1.239-.496.128-1.243.189-2.24.189-.686.06-1.258.094-1.727.094-.468 0-.948.156-1.444.478 2.24-4.565 4.37-9.064 6.391-13.506a234.258 234.258 0 016.484-13.124c1.182-2.282 2.207-3.865 3.078-4.754.872-.888 2.054-1.3 3.547-1.238a15.52 15.52 0 011.913.333 4.684 4.684 0 002.005.05c-.687.383-1.51 1.205-2.474 2.471-.964 1.272-1.961 2.76-2.986 4.471a120.482 120.482 0 00-3.078 5.47 128.048 128.048 0 00-2.751 5.47 99.976 99.976 0 013.497-4.231c1.401-1.616 2.812-3.06 4.245-4.326 1.122-1.011 2.506-2.105 4.151-3.282a50.714 50.714 0 014.991-3.138c1.678-.917 3.247-1.633 4.713-2.138 1.46-.506 2.599-.633 3.405-.384a319.055 319.055 0 00-5.132 9.797 122.216 122.216 0 00-2.005 4.087 142.104 142.104 0 00-1.82 4.043 58.636 58.636 0 00-1.444 3.66c-.403 1.144-.67 2.127-.795 2.95-.376 1.965-.376 3.248 0 3.848.376.605.872.905 1.493.905 1.182 0 2.424-.666 3.732-2 1.307-1.332 2.55-2.898 3.732-4.709a56.554 56.554 0 003.171-5.47 468.425 468.425 0 002.147-4.282c.376-.822.795-1.127 1.258-.905.469.222.48.805.049 1.76zM89.807 7.037c-.126-1.455-.703-2.805-1.727-4.043C87.055 1.755 85.699.889 84.02.378c-1.677-.506-3.606-.506-5.786 0-2.179.505-4.494 1.794-6.952 3.848-2.457 2.06-4.98 5.043-7.557 8.942-2.582 3.898-5.083 8.958-7.508 15.167a348.373 348.373 0 01-3.547 9.224c-.931 2.41-1.82 4.71-2.658 6.892-.84 2.188-1.417 3.599-1.727 4.232-4.98.633-8.99.316-12.036-.95-3.046-1.266-5.274-3.026-6.669-5.276-1.4-2.249-2.054-4.787-1.961-7.608.092-2.821.806-5.531 2.146-8.13.202-.39.436-.75.66-1.122-1.46-.44-2.534-1.144-3.193-2.127-1.259 1.366-2.24 2.799-2.926 4.298-1.242 2.727-1.602 5.498-1.073 8.32.528 2.82 1.803 5.375 3.825 7.652 2.02 2.283 4.723 4.104 8.118 5.47 3.389 1.367 7.322 1.983 11.8 1.855a270.388 270.388 0 01-4.805 9.703 121.425 121.425 0 01-4.99 8.652c-1.678-.317-3.547-.539-5.596-.666a57.75 57.75 0 00-6.206-.05 62.18 62.18 0 00-6.113.572 37.385 37.385 0 00-5.503 1.188c-4.168 1.266-7.322 2.871-9.469 4.804C2.147 77.201.812 79.15.284 81.116c-.528 1.966-.327 3.838.605 5.61.931 1.77 2.38 3.187 4.337 4.23 1.961 1.045 4.337 1.556 7.137 1.523 2.8-.034 5.814-.845 9.05-2.427 3.046-1.46 5.955-3.538 8.723-6.232 2.768-2.693 5.366-5.786 7.791-9.268a247.55 247.55 0 019 1.899c3.02.7 5.989 1.555 8.909 2.566a61.258 61.258 0 018.445 3.66 36.031 36.031 0 017.415 5.181c1.553 1.394 2.752 2.993 3.59 4.804.84 1.805 1.385 3.582 1.635 5.326.245 1.744.294 3.376.142 4.898-.158 1.522-.42 2.694-.796 3.521-.185.383-.419.855-.697 1.427-.278.572-.436 1.044-.468 1.428-.033.383.108.616.42.71.31.095.963-.144 1.96-.71.872-.445 1.646-1.3 2.332-2.566.562-1.017.856-2.41.889-4.188.032-1.777-.278-3.71-.932-5.798-.654-2.093-1.667-4.215-3.03-6.37-1.367-2.154-3.17-4.12-5.41-5.898a59.045 59.045 0 00-7.186-4.803 81.802 81.802 0 00-7.977-3.993 118.464 118.464 0 00-8.025-3.138c-2.643-.916-5.116-1.666-7.416-2.233.311-.572.638-1.11.981-1.616.343-.505.67-1.044.981-1.616 1.678-3.043 3.127-5.831 4.337-8.37a838.08 838.08 0 013.874-7.985c3.296-.572 6.592-1.6 9.889-3.094a54.042 54.042 0 009.425-5.47 55.354 55.354 0 008.255-7.32c2.517-2.726 4.663-5.609 6.44-8.652 1.77-3.043 3.094-6.198 3.966-9.463.866-3.266 1.177-6.481.932-9.652zm-69.882 80.36c-2.86 1.394-5.492 2.171-7.883 2.327-2.392.155-4.403-.078-6.015-.71-1.619-.634-2.768-1.567-3.455-2.805-.686-1.239-.746-2.566-.185-3.993.561-1.428 1.847-2.855 3.874-4.282 2.021-1.427 4.898-2.616 8.63-3.566 3.046-.822 6.266-1.266 9.655-1.332 3.389-.062 6.636.255 9.747.95-4.413 6.402-9.202 10.873-14.367 13.411zM83.09 22.109a44.892 44.892 0 01-7.65 11.696 50.205 50.205 0 01-10.87 9.08c-4.075 2.538-8.194 4.282-12.362 5.232.932-2.028 1.88-4.027 2.844-5.993a432.323 432.323 0 012.66-5.326c.93-1.838 1.83-3.582 2.707-5.231 3.607-7.225 6.963-12.757 10.074-16.594 3.111-3.838 5.797-6.448 8.07-7.848 2.271-1.394 4.075-1.804 5.41-1.238 1.334.572 2.005 1.65 2.005 3.232.005 4.388-.96 8.714-2.888 12.99z" fill="#DAC6B3"/><path d="M108.609 91.406h-2.91v-1.405h7.443v1.405h-2.91v7.537h-1.629v-7.537h.006zm22.082 6.148v1.394h-6.576v-8.94h6.402V91.4h-4.773v2.327h4.233v1.366h-4.233v2.466h4.947v-.006zm16.988 1.389l-2.381-3.4-2.353 3.4h-1.853l3.258-4.56-3.083-4.382h1.841l2.245 3.183L147.57 90h1.766l-3.068 4.316 3.297 4.626h-1.886zm14.302-7.537h-2.909v-1.405h7.442v1.405h-2.909v7.537h-1.629v-7.537h.005zm15.506-1.405h1.629v8.942h-1.629V90zm13.742 0h1.629v7.537h4.587v1.405h-6.216V90zm23.825 7.553v1.394h-6.576v-8.94h6.402V91.4h-4.773v2.327h4.234v1.366h-4.234v2.466h4.947v-.006z" fill="#343434"/><path d="M51.384 23.186c-.273.172-.632.24-1.008.306-.3.05-.605.105-.91.216-1.123.411-1.77 1.405-2.397 2.366-.54.833-1.052 1.616-1.826 1.966-.348.156-.719.2-1.09.161-.74-.078-1.465-.494-1.944-1.016-.447-.494-.796-1.133-1.052-1.927a8.456 8.456 0 01-.201-.739 12.236 12.236 0 01-.164-.86c-.256-1.728-.218-3.322.082-4.649.48-.089.964-.261 1.433-.517.005 0 .686-.444.735-.483.082-.06.158-.122.23-.189.293-.25.555-.527.778-.821.038-.012.589-.795.507-.811.022-.045.043-.095.065-.145.126-.277.218-.56.278-.844.877.011 1.874.267 2.98.767 1.597.716 2.904 2.054 3.634 3.67a7.359 7.359 0 01.333.883c.005.028.016.05.022.078.283.972.234 2.127-.485 2.588zm-15.572 4.332c-.354-.333-.55-.828-.757-1.355-.202-.505-.404-1.027-.769-1.477-.49-.606-1.16-.939-1.863-1.172a14.143 14.143 0 00-1.286-.333l-.234-.05c-1.379-.317-2.185-.811-2.468-1.522-.376-.955.294-2.066.6-2.5a7.604 7.604 0 011.928-1.887 9.965 9.965 0 012.931-1.366c.894-.25 1.765-.34 2.653-.373.006.361.055.711.142 1.05.027.094.05.183.082.272.022.067.049.128.076.189.066.155.136.3.218.433.027.05.06.1.087.145l.463.555c.943.85 2.114.916 2.289.927-.29 1.433-.31 3.105-.028 4.888.071.438.158.85.262 1.232-.425.889-.937 1.744-1.684 2.277-.762.545-1.95.717-2.642.067zm-8.025-14.683c.141-.295.414-.539.703-.8.223-.206.457-.417.659-.672.74-.955.779-2.144.817-3.299.033-1 .06-1.944.54-2.649a2.22 2.22 0 01.844-.722c.67-.333 1.504-.366 2.18-.178.419.117.833.311 1.247.59.229.155.463.332.692.532a8.815 8.815 0 01.992 1.022c1.226 1.444 2.07 2.949 2.484 4.337a3.892 3.892 0 00-.501.333c-.038.028-.071.062-.11.09a5.21 5.21 0 00-.255.238c-.06.061-1.259 1.189-1.466 2.844-.986.027-1.961.122-2.986.41-1.204.34-2.31.862-3.263 1.534a7.049 7.049 0 01-1.618-1.089c-.752-.683-1.346-1.727-.96-2.521zm7.491-10.458c.071-.805.458-1.5 1.019-1.805.016-.005.027-.017.044-.022.724-.372 1.612-.133 2.544.117.632.166 1.291.344 1.956.35.844.01 1.634-.256 2.392-.512.68-.227 1.318-.444 1.972-.46C46.862 0 48.491 1.366 48.986 3.22a5.78 5.78 0 01.175 1.805 9.584 9.584 0 00-.888.461c-1.205.71-4.572 2.871-5.808 5.365-.142-.056-1.695-.606-2.632-.206-.463-1.51-1.362-3.11-2.648-4.631-.534-.628-1.062-1.133-1.602-1.533-.201-.678-.365-1.4-.305-2.105z" fill="#595BBC"/><path d="M43.14 12.396c.169.15.31.316.436.494.06.083.109.172.158.255a2.54 2.54 0 01.294.95c.006.061.011.122.011.189a2.196 2.196 0 01-.027.494c-.017.133-.05.261-.082.394-.01.045-.027.09-.038.134a2.864 2.864 0 01-.164.405c-.07.15-.157.3-.256.45-.005.006-.005.011-.01.017-.017.027-.039.05-.055.078a4.33 4.33 0 01-.725.8 3.115 3.115 0 01-.207.171 2.876 2.876 0 01-.141.106c-.022.017-.05.033-.071.05-.234.16-.474.3-.72.41-.108.05-.217.09-.326.129a2.957 2.957 0 01-.561.138 2.676 2.676 0 01-.512.034h-.082a3.498 3.498 0 01-.981-.172 2.475 2.475 0 01-.343-.15A2.103 2.103 0 0137.91 17a2.444 2.444 0 01-.213-.433c-.01-.023-.016-.05-.027-.073a2.59 2.59 0 01-.11-.416 3.538 3.538 0 01-.059-.595c0-.16.005-.327.022-.488.016-.161.043-.328.081-.489.088-.378.224-.755.404-1.1a4.526 4.526 0 01.687-.966c.06-.06.119-.122.184-.178.028-.022.055-.05.082-.072l.093-.077c.038-.034.081-.062.12-.09.092-.066.19-.122.288-.171.05-.028.104-.05.153-.073.147-.066.3-.116.452-.155.038-.011.082-.017.12-.028a3.35 3.35 0 01.616-.061 3.783 3.783 0 01.948.133c.125.034.245.078.365.122a2.383 2.383 0 01.441.217.81.81 0 01.093.056c.12.072.24.155.343.244.054.011.098.05.147.089z" fill="#DAC6B3"/><path d="M52.506 19.454c-.801-1.932-2.332-3.543-4.217-4.387-1.063-.477-1.989-.722-2.79-.805a7.88 7.88 0 00-.495-.033 4.3 4.3 0 00-.071-.59 3.083 3.083 0 00-.142-.499 3.251 3.251 0 00-.202-.444c-.021-.04-.986-1.2-1.274-1.389.185-.377.435-.76.735-1.138.24-.3.512-.6.806-.894 1.09-1.083 2.512-2.11 3.896-2.927.076-.044.152-.089.234-.133.175-.1.36-.195.55-.283.17-.078.344-.145.524-.206.42-.133.86-.205 1.285-.133 1.28.216 2.114 1.6 2.37 2.882.175.86.175 1.738.175 2.666 0 .605 0 1.233.054 1.85.038.454.104.91.175 1.36.092.616.174 1.194.19 1.783.022.788-.092 1.888-.762 2.637a2.381 2.381 0 01-1.041.683z" fill="#595BBC"/><path d="M80.604 89.863l6.974-2.127-6.233 3.332c9.878 4.876 16.509-8.014 16.509-8.014-14.869-2.693-16.961 4.37-17.25 6.809zM35.398 64.26l-5.443-4.92 6.065 3.643c-1.14-11.13-15.381-10.085-15.381-10.085 5.584 14.306 12.58 12.395 14.76 11.362z" fill="#86BC94"/></g><defs><clipPath id="clip0"><path d="M0 0h226v110H0V0z" fill="#fff"/></clipPath></defs></svg>